<mxfile host="65bd71144e">
    <diagram id="3tOAd-FZpRMhtWBeyw0o" name="ページ1">
        <mxGraphModel dx="614" dy="669" grid="1" gridSize="10" guides="1" tooltips="1" connect="1" arrows="1" fold="1" page="1" pageScale="1" pageWidth="583" pageHeight="413" math="0" shadow="0">
            <root>
                <mxCell id="0"/>
                <mxCell id="1" parent="0"/>
                <mxCell id="5" value="&lt;div style=&quot;font-family: Menlo, Monaco, &amp;quot;Courier New&amp;quot;, monospace; line-height: 18px;&quot;&gt;&lt;font color=&quot;#2e2e2e&quot; style=&quot;font-size: 18px;&quot;&gt;&lt;b&gt;&amp;nbsp;cd /etc; pushd mywd; \&lt;/b&gt;&lt;/font&gt;&lt;/div&gt;&lt;div style=&quot;font-family: Menlo, Monaco, &amp;quot;Courier New&amp;quot;, monospace; line-height: 18px;&quot;&gt;&lt;font color=&quot;#2e2e2e&quot; style=&quot;font-size: 18px;&quot;&gt;&lt;b&gt;&amp;nbsp;sh -n myfuzz.sh &amp;amp;&amp;amp; ./myfuzz.sh; \&lt;/b&gt;&lt;/font&gt;&lt;/div&gt;&lt;div style=&quot;font-family: Menlo, Monaco, &amp;quot;Courier New&amp;quot;, monospace; line-height: 18px;&quot;&gt;&lt;font color=&quot;#2e2e2e&quot; style=&quot;font-size: 18px;&quot;&gt;&lt;b&gt;&amp;nbsp;POSIXLY_CORRECT= df -h .; \&lt;/b&gt;&lt;/font&gt;&lt;/div&gt;&lt;div style=&quot;font-family: Menlo, Monaco, &amp;quot;Courier New&amp;quot;, monospace; line-height: 18px;&quot;&gt;&lt;b style=&quot;color: rgb(46, 46, 46); background-color: initial;&quot;&gt;&amp;nbsp;popd; rm -rf mywd&lt;/b&gt;&lt;/div&gt;" style="text;html=1;strokeColor=#66B2FF;fillColor=none;align=left;verticalAlign=middle;whiteSpace=wrap;rounded=0;fontSize=18;fontFamily=Noto Sans JP;fontSource=https%3A%2F%2Ffonts.googleapis.com%2Fcss%3Ffamily%3DNoto%2BSans%2BJP;" parent="1" vertex="1">
                    <mxGeometry width="430" height="90" as="geometry"/>
                </mxCell>
                <mxCell id="15" value="" style="shape=flexArrow;endArrow=classic;html=1;fontSize=15;fontColor=#2E2E2E;fillColor=#d5e8d4;strokeColor=#82b366;width=12;endWidth=17.77777777777778;endSize=4.588888888888889;fontFamily=Noto Sans JP;fontSource=https%3A%2F%2Ffonts.googleapis.com%2Fcss%3Ffamily%3DNoto%2BSans%2BJP;" parent="1" edge="1">
                    <mxGeometry width="50" height="50" relative="1" as="geometry">
                        <mxPoint x="140" y="110" as="sourcePoint"/>
                        <mxPoint x="140" y="140" as="targetPoint"/>
                    </mxGeometry>
                </mxCell>
                <mxCell id="17" value="&lt;font color=&quot;#000000&quot; style=&quot;font-size: 16px;&quot;&gt;変換処理&lt;/font&gt;" style="text;html=1;strokeColor=none;fillColor=none;align=center;verticalAlign=middle;whiteSpace=wrap;rounded=0;labelBackgroundColor=none;fontSize=18;fontColor=#2E2E2E;fontFamily=Noto Sans JP;fontSource=https%3A%2F%2Ffonts.googleapis.com%2Fcss%3Ffamily%3DNoto%2BSans%2BJP;" parent="1" vertex="1">
                    <mxGeometry x="160" y="115" width="70" height="17" as="geometry"/>
                </mxCell>
                <mxCell id="21" value="&lt;div style=&quot;background-color: rgb(30, 30, 30); font-family: Menlo, Monaco, &amp;quot;Courier New&amp;quot;, monospace; line-height: 18px; font-size: 18px;&quot;&gt;&lt;div style=&quot;&quot;&gt;&lt;div style=&quot;color: rgb(212, 212, 212); line-height: 18px;&quot;&gt;&lt;div style=&quot;line-height: 18px;&quot;&gt;&lt;div&gt;&lt;br&gt;&lt;/div&gt;&lt;div&gt;&lt;span style=&quot;color: #c586c0;&quot;&gt;&amp;nbsp;RUN&lt;/span&gt; &lt;span style=&quot;color: #9cdcfe;&quot;&gt;cd&lt;/span&gt; &lt;span style=&quot;color: #9cdcfe;&quot;&gt;/etc;&lt;/span&gt; &lt;span style=&quot;color: #9cdcfe;&quot;&gt;pushd&lt;/span&gt; &lt;span style=&quot;color: #9cdcfe;&quot;&gt;mywd; \&amp;nbsp; &amp;nbsp; &amp;nbsp; &amp;nbsp; &amp;nbsp; &amp;nbsp;&lt;/span&gt;&amp;nbsp;&lt;/div&gt;&lt;div&gt;&lt;span style=&quot;color: #9cdcfe;&quot;&gt;&amp;nbsp; &amp;nbsp; &amp;nbsp;./myfuzz.sh; \&lt;/span&gt;&lt;/div&gt;&lt;div&gt; &lt;span style=&quot;color: #9cdcfe;&quot;&gt;&amp;nbsp; &amp;nbsp; &amp;nbsp;popd;&lt;/span&gt; &lt;span style=&quot;color: #9cdcfe;&quot;&gt;rm&lt;/span&gt; &lt;span style=&quot;color: #9cdcfe;&quot;&gt;-rf&lt;/span&gt; &lt;span style=&quot;color: #9cdcfe;&quot;&gt;mywd&lt;/span&gt;&lt;/div&gt;&lt;div&gt;&lt;span style=&quot;color: #c586c0;&quot;&gt;&amp;nbsp;WORKDIR&lt;/span&gt; &lt;span style=&quot;color: #9cdcfe;&quot;&gt;/etc&lt;/span&gt;&lt;/div&gt;&lt;div&gt;&lt;span style=&quot;color: #9cdcfe;&quot;&gt;&lt;br&gt;&lt;/span&gt;&lt;/div&gt;&lt;/div&gt;&lt;/div&gt;&lt;/div&gt;&lt;/div&gt;" style="text;html=1;strokeColor=none;fillColor=none;align=left;verticalAlign=middle;whiteSpace=wrap;rounded=0;labelBackgroundColor=none;fontSize=14;fontColor=#000000;fontFamily=Noto Sans JP;fontSource=https%3A%2F%2Ffonts.googleapis.com%2Fcss%3Ffamily%3DNoto%2BSans%2BJP;" parent="1" vertex="1">
                    <mxGeometry y="160" width="430" height="110" as="geometry"/>
                </mxCell>
            </root>
        </mxGraphModel>
    </diagram>
</mxfile>